<?xml version="1.0" encoding="utf-8"?>
<!-- Generator: Adobe Illustrator 20.0.0, SVG Export Plug-In . SVG Version: 6.00 Build 0)  -->
<svg version="1.1" id="Layer_1" xmlns="http://www.w3.org/2000/svg" xmlns:xlink="http://www.w3.org/1999/xlink" x="0px" y="0px"
	 viewBox="0 0 24 24" style="enable-background:new 0 0 24 24;" xml:space="preserve">
<path d="M12.6,16.5h-1.3v-6.4h1.3V16.5 M12.6,8.8h-1.3V7.5h1.3V8.8 M16.1,4.8c-1.3-0.7-2.7-1.1-4.1-1.1S9.1,4.1,7.8,4.8
	s-2.3,1.8-3,3C4.1,9.1,3.7,10.5,3.7,12s0.4,2.9,1.1,4.2s1.8,2.3,3,3c1.3,0.7,2.7,1.1,4.1,1.1c1.5,0,2.9-0.4,4.2-1.1
	c1.3-0.7,2.3-1.8,3-3c0.7-1.3,1.1-2.7,1.1-4.1c0-1.5-0.4-2.9-1.1-4.2C18.5,6.6,17.4,5.6,16.1,4.8 M16.8,20.3c0,0-0.4,0.2-1.1,0.6
	c-0.7,0.4-2,0.6-3.7,0.6s-3.4-0.4-4.8-1.3c-1.5-0.9-2.6-2-3.5-3.5S2.4,13.7,2.4,12s0.4-3.4,1.3-4.8s2-2.6,3.5-3.5s3.1-1.3,4.8-1.3
	s3.3,0.4,4.8,1.3s2.6,2,3.5,3.5c0.9,1.5,1.3,3.1,1.3,4.8s-0.4,3.3-1.3,4.8C19.5,18.3,18.3,19.5,16.8,20.3z"/>
</svg>
